<svg xmlns="http://www.w3.org/2000/svg" xml:space="preserve" width="1500" height="1500" data-id="lg_tcuYDQZYfX04alQokT" data-version="1" viewBox="0 0 1500 1500"><path fill="#fff" stroke="transparent" d="M0 0h1500v1500H0z"/><g data-padding="20"><g transform="translate(-569.073 -584.61)scale(1.71898)"><rect width="412.061" height="72.32" x="161.076" y="339.866" fill="none" rx="0" ry="0" transform="translate(474.47 400.37)"/><path fill="#909090" d="M638.157 793.746v-14.31q.19.03 1.77.55 1.58.51 3.83 1.16 2.25.64 4.51 1.12 2.27.48 3.86.48 1.38 0 2.25-.4.88-.41.88-1.5 0-1.19-1.25-2.16t-3.2-2q-1.96-1.03-4.16-2.34t-4.16-3.16q-1.95-1.84-3.2-4.42t-1.25-6.17q0-4.41 1.84-7.45 1.85-3.05 4.96-4.91t7-2.7q3.89-.85 7.98-.85 3.47 0 6.56.38 3.1.37 5.24.81t2.7.59v14.35l-1.3-.28q-1.29-.29-3.25-.63-1.95-.34-4.03-.62-2.08-.29-3.64-.29-1.44 0-2.15.5-.72.5-.72 1.19 0 .56.62 1.24.63.67 1.5 1.04 3.28 1.44 6.19 2.94t5.12 3.47q2.22 1.97 3.49 4.8 1.26 2.82 1.26 6.92 0 4.87-2.45 8.5-2.45 3.62-7.06 5.62t-11.11 2q-5.59 0-9.22-.53-3.62-.53-5.69-1.2-2.06-.67-2.89-1.2Zm41.04-31.46v-16.19h47.25v16.19h-13.9v33.71h-19.44v-33.71Zm62.72 33.71v-19.46l-15.22-30.44h22.28l4.97 10.22 5.12-10.22h18.63l-15.53 30.44v19.46Zm38.15 0v-49.9h19.44v34.87h16.78v15.03Zm38.22 0v-49.9h35.96v14.37h-16.53v4.1h16.47v12.25h-16.47v4.72h17.63v14.46Zm41.65 0v-49.9h5.06l27.25 19.44v-19.44h17.6v49.9h-6.72l-25.66-17.15v17.15Zm54.78 0v-49.9h35.97v14.37h-16.54v4.1h16.47v12.25h-16.47v4.72h17.63v14.46Zm40.92-2.25v-14.31q.19.03 1.77.55 1.57.51 3.82 1.16 2.25.64 4.52 1.12t3.86.48q1.37 0 2.25-.4.87-.41.87-1.5 0-1.19-1.25-2.16t-3.2-2-4.16-2.34q-2.2-1.31-4.15-3.16-1.95-1.84-3.2-4.42t-1.25-6.17q0-4.41 1.84-7.45 1.84-3.05 4.95-4.91t7-2.7q3.89-.85 7.99-.85 3.47 0 6.56.38 3.09.37 5.23.81t2.71.59v14.35l-1.3-.28q-1.3-.29-3.25-.63t-4.03-.62q-2.08-.29-3.64-.29-1.44 0-2.16.5t-.72 1.19q0 .56.63 1.24.62.67 1.5 1.04 3.28 1.44 6.19 2.94 2.9 1.5 5.12 3.47t3.48 4.8q1.27 2.82 1.27 6.92 0 4.87-2.45 8.5-2.46 3.62-7.07 5.62-4.6 2-11.1 2-5.6 0-9.22-.53-3.63-.53-5.69-1.2t-2.89-1.2Zm41.03-31.46v-16.19h47.25v16.19h-13.91v33.71h-19.44v-33.71Z"/><rect width="100" height="50.38" x="263.766" y="296.199" fill="#909090" rx="7" ry="7" transform="translate(193.14 400.64)scale(1.17)"/><path fill="#fff" d="m543.037 741.756 40.07 34.685-40.07 34.686H516.54l30.508-26.37h-59.942v-16.815h59.722l-30.336-26.236Zm55.14 25.71a9.16 9.16 0 1 0 0 18.32 9.16 9.16 0 1 0 0-18.32"/></g><path fill="transparent" stroke="transparent" stroke-width="1.783" d="M250 685.829h1000V814.17H250z"/></g></svg>